{"title":"Hard Target-2 (2016)1080p Blu-ray x264 DTSHD 5.1 MSubs -DDR","uid":15703170,"size":11348041989,"categoryP":"video","categoryS":"hd___movies","magnet":"?xt=urn:btih:8b37a21ef78779012121fcff3de4adec5dc48707&amp;dn=Hard+Target-2+%282016%291080p+Blu-ray+x264+DTSHD+5.1+MSubs+-DDR&amp;tr=udp%3A%2F%2Ftracker.leechers-paradise.org%3A6969&amp;tr=udp%3A%2F%2Fzer0day.ch%3A1337&amp;tr=udp%3A%2F%2Fopen.demonii.com%3A1337&amp;tr=udp%3A%2F%2Ftracker.coppersurfer.tk%3A6969&amp;tr=udp%3A%2F%2Fexodus.desync.com%3A6969","seeders":18,"leechers":10,"uploader":"SaM","files":3,"time":1472503338,"description":"- HollyWooD Movie-\r\n\r\nHard Target\r\n- 2 -\r\n** 2016 **\r\n1080p / Blu-ray / x264\r\nEnglish DTS-HD MA 5.1\r\nEnglish, French, Spanish &amp; Portugues subs\r\n\r\nForced &amp; Hearing Impaired subs included\r\n \nhttp://extraimago.com/image/wSVy \nhttp://extraimago.com/image/wSVq \nhttp://extraimago.com/image/wSVS \nhttp://extraimago.com/image/wSVO \nhttp://extraimago.com/image/wSVE \nhttp://extraimago.com/image/wSV1 \nhttp://extraimago.com/image/wSVc \nhttp://extraimago.com/image/wSV7 \nhttp://extraimago.com/image/wSVs \nhttp://extraimago.com/image/wSVn \nhttp://extraimago.com/image/wSVj \nhttp://extraimago.com/image/wSVT \nhttp://extraimago.com/image/wSVN \nhttp://extraimago.com/image/wSV2 \nhttp://extraimago.com/image/wSVw \nhttp://extraimago.com/image/wSVa\r\n\r\nSOURCE: Russian Bluray @ HDC\r\n\r\nFile size : 10.5 GiB\r\nDuration : 1 h 43 min\r\nOverall bit rate : 14.5 Mb/s\r\n\r\nVideo\r\nFormat : AVC\r\nFormat/Info : Advanced Video Codec\r\nFormat profile :   \r\nFormat settings, CABAC : Yes\r\nFormat settings, ReFrames : 4 frames\r\nCodec ID : V_MPEG4/ISO/AVC\r\nDuration : 1 h 43 min\r\nBit rate : 10.0 Mb/s\r\nWidth : 1 920 pixels\r\nHeight : 1 080 pixels\r\nDisplay aspect ratio : 16:9\r\nFrame rate mode : Constant\r\nFrame rate : 23.976 (24000/1001) FPS\r\ncolor space : YUV\r\nChroma subsampling : 4:2:0\r\nBit depth : 8 bits\r\nScan type : Progressive\r\nBits/(Pixel*Frame) : 0.201\r\nStream size : 7.24 GiB (69%)\r\n\r\nAudio\r\nFormat : DTS\r\nFormat/Info : Digital Theater Systems\r\nFormat profile : MA / Core\r\nMode : 16\r\nFormat settings, Endianness : Big\r\nCodec ID : A_DTS\r\nDuration : 1 h 43 min\r\nBit rate mode : Variable / Constant\r\nBit rate : 4 438 kb/s / 1 509 kb/s\r\nChannel(s) : 6 channels\r\nChannel positions : Front: L C R, Side: L R, LFE\r\nSampling rate : 48.0 kHz\r\nFrame rate : 93.750 FPS (512 spf)\r\nBit depth : 24 bits\r\nCompression mode : Lossless / Lossy\r\nStream size : 3.21 GiB (31%)\r\nLanguage : English\r\nDefault : Yes\r\nForced : No\r\n\r\nChapters = Yes\r\nSample : Included","torrent":{"xt":"urn:btih:8b37a21ef78779012121fcff3de4adec5dc48707","amp;dn":"Hard+Target-2+%282016%291080p+Blu-ray+x264+DTSHD+5.1+MSubs+-DDR","amp;tr":["udp%3A%2F%2Ftracker.leechers-paradise.org%3A6969","udp%3A%2F%2Fzer0day.ch%3A1337","udp%3A%2F%2Fopen.demonii.com%3A1337","udp%3A%2F%2Ftracker.coppersurfer.tk%3A6969","udp%3A%2F%2Fexodus.desync.com%3A6969"],"infoHash":"8b37a21ef78779012121fcff3de4adec5dc48707","infoHashBuffer":{"type":"Buffer","data":[139,55,162,30,247,135,121,1,33,33,252,255,61,228,173,236,93,196,135,7]},"announce":[],"urlList":[]}}